# xmcd
#
# Track frame offsets:
#	151
#	10540
#	28041
#	42254
#	55427
#	72784
#	87241
#	98670
#	112383
#	129912
#	138925
#	152526
#	163481
#	174866
#	191169
#	207012
#	225101
#
# Disc length: 3227
#
# Revision: 1
# Processed by: cddbd v1.5.1PL0 Copyright (c) Steve Scherf et al.
# Submitted via: CDex 1.40Release
# Normalized: r0:DSETVAR1,TDELIM( - )
#
DISCID=d70c9911
DTITLE=Various Artist - Wolf Live Vol. 1
DYEAR=1900
DGENRE=Country
TTITLE0=The Galaxy Song - Clint Black w/Mr. Leonard
TTITLE1=Change - Sons of the Dessert
TTITLE2=Flowers on the Wall - Eric Heatherly
TTITLE3=A Good Day to Run - Darryl Worley
TTITLE4=Big Balls in Cowtown - Asleep at the Wheel
TTITLE5=I'm Alright - JoDee Messina
TTITLE6=On Earth as it is in Texas - Deryl Dodd
TTITLE7=The Bear Song - Lyle Lovett
TTITLE8=My Hometown - Charlie Robison
TTITLE9=I'm from the Country - Tracy Byrd
TTITLE10=Fire and Rain - Clint Black
TTITLE11=Drinkin' Thing - Gary Stewart
TTITLE12=How Many Days - Jack Ingram
TTITLE13=Songs About Texas - Pat Green
TTITLE14=Dana Blues - Terri Hendrix w/ Lloyd Maines
TTITLE15=Second Wind - Darryl Worley
TTITLE16=Boogie Back to Texas - Alseep at the Wheel
EXTD=ID3G: 2
EXTT0=
EXTT1=
EXTT2=
EXTT3=
EXTT4=
EXTT5=
EXTT6=
EXTT7=
EXTT8=
EXTT9=
EXTT10=
EXTT11=
EXTT12=
EXTT13=
EXTT14=
EXTT15=
EXTT16=
PLAYORDER=
